<svg id="Layer_1" data-name="Layer 1" xmlns="http://www.w3.org/2000/svg" viewBox="0 0 655 115"><path d="M160,85.84a21.85,21.85,0,0,1-5.74-.63,22.65,22.65,0,0,1-3.84-1.41c-1.06-.52-2-1-2.81-1.4a5.54,5.54,0,0,0-2.56-.63,1.79,1.79,0,0,0-1.77,1.55h-.89V70.6h.89a17,17,0,0,0,5.32,10.54C151.48,83.68,155.27,85,160,85a15.66,15.66,0,0,0,5.62-.89,9.89,9.89,0,0,0,3.74-2.44A9.18,9.18,0,0,0,171.44,78a15.18,15.18,0,0,0,.63-4.44,15.41,15.41,0,0,0-.71-5,9.94,9.94,0,0,0-2.29-3.74,17.57,17.57,0,0,0-4.22-3.11c-1.75-1-3.91-2-6.47-3.14a64.13,64.13,0,0,1-6.4-3.26,21.69,21.69,0,0,1-4.62-3.51,13.33,13.33,0,0,1-2.81-4.14,12.87,12.87,0,0,1-1-5.14,12.15,12.15,0,0,1,4.67-9.92,15.42,15.42,0,0,1,4.92-2.59,19.15,19.15,0,0,1,5.88-.89,22.53,22.53,0,0,1,4.92.45,27.07,27.07,0,0,1,3.36,1c.94.35,1.77.67,2.48,1A5.6,5.6,0,0,0,172,32a1.91,1.91,0,0,0,2-1.56h.82v9.84H174a12.87,12.87,0,0,0-5.36-7.73,17.5,17.5,0,0,0-9.58-2.48c-3.46,0-6.14.74-8.07,2.22s-2.88,3.7-2.88,6.66a12.34,12.34,0,0,0,.63,4.14,9,9,0,0,0,2,3.26,17.16,17.16,0,0,0,3.63,2.81,47,47,0,0,0,5.47,2.74c2.52,1.08,4.83,2.17,7,3.25a29.49,29.49,0,0,1,5.54,3.63,14.41,14.41,0,0,1,3.7,4.66,13.86,13.86,0,0,1,1.33,6.29,15.3,15.3,0,0,1-5,11.46,17.91,17.91,0,0,1-5.54,3.41A18.39,18.39,0,0,1,160,85.84Z"/><path d="M194.41,84.5a5.84,5.84,0,0,0,2.11-1,4.19,4.19,0,0,0,1.18-2.34,25.49,25.49,0,0,0,.48-5q.07-3.29.08-9.06V30.64H193a29,29,0,0,0-4.67.34,8.88,8.88,0,0,0-3.51,1.33,7.82,7.82,0,0,0-2.55,2.92,19.11,19.11,0,0,0-1.7,5h-1l1.11-8.65a3.22,3.22,0,0,1,.41-1.59,1.52,1.52,0,0,1,1.07-.26h38.32a1.55,1.55,0,0,1,1.08.26,3.38,3.38,0,0,1,.4,1.59L223,40.26h-1a19.48,19.48,0,0,0-1.7-5,7.93,7.93,0,0,0-2.56-2.92A8.9,8.9,0,0,0,214.2,31a30.13,30.13,0,0,0-4.77-.34h-5V67.12q0,5.77.07,9.06a25.49,25.49,0,0,0,.48,5,4.2,4.2,0,0,0,1.19,2.34,5.76,5.76,0,0,0,2.11,1v.74H194.41Z"/><path d="M224.52,84.5a6,6,0,0,0,2.11-1,4,4,0,0,0,1.18-2.33,25.3,25.3,0,0,0,.49-5c0-2.19.07-5.21.07-9.06V47.81c0-3.8,0-6.8-.07-9a25.39,25.39,0,0,0-.49-5,4.23,4.23,0,0,0-1.18-2.37,5.84,5.84,0,0,0-2.11-1v-.66h13.84v.66a5.84,5.84,0,0,0-2.11,1,4.23,4.23,0,0,0-1.18,2.37,25.39,25.39,0,0,0-.49,5q-.08,3.28-.07,9v6.58h28V47.81c0-3.8,0-6.8-.07-9a26.32,26.32,0,0,0-.48-5,4.29,4.29,0,0,0-1.19-2.37,5.84,5.84,0,0,0-2.11-1v-.66h13.84v.66a5.84,5.84,0,0,0-2.11,1,4.23,4.23,0,0,0-1.18,2.37,25.39,25.39,0,0,0-.49,5q-.08,3.28-.07,9V67.12q0,5.77.07,9.06a25.3,25.3,0,0,0,.49,5,4,4,0,0,0,1.18,2.33,6,6,0,0,0,2.11,1v.74H258.7V84.5a6,6,0,0,0,2.11-1A4,4,0,0,0,262,81.21a26.23,26.23,0,0,0,.48-5c0-2.19.07-5.21.07-9.06V55.28h-28V67.12q0,5.77.07,9.06a25.3,25.3,0,0,0,.49,5,4,4,0,0,0,1.18,2.33,6,6,0,0,0,2.11,1v.74H224.52Z"/><path d="M274.61,84.5a6,6,0,0,0,2.11-1,4,4,0,0,0,1.18-2.33,26.23,26.23,0,0,0,.48-5q.08-3.29.08-9.06V47.81q0-5.7-.08-9a26.32,26.32,0,0,0-.48-5,4.23,4.23,0,0,0-1.18-2.37,5.84,5.84,0,0,0-2.11-1v-.66h14.06v.66a6.25,6.25,0,0,0-2.3,1,4,4,0,0,0-1.18,2.37,30.09,30.09,0,0,0-.48,5c-.08,2.19-.11,5.19-.11,9V84.36h13.76a31.65,31.65,0,0,0,4.29-.26A7.88,7.88,0,0,0,306,82.84a8.77,8.77,0,0,0,2.59-2.92,24.14,24.14,0,0,0,2.07-5.26h1l-1.33,8.81c-.1.84-.27,1.34-.52,1.52a2.14,2.14,0,0,1-1.18.25h-34Z"/><path d="M312.41,84.5a6.34,6.34,0,0,0,2.11-1.25,5.06,5.06,0,0,0,1.19-2.52,26.9,26.9,0,0,0,.48-5.07q.07-3.28.07-9.06V47.81q0-5.7-.07-9a25.58,25.58,0,0,0-.48-5,4.26,4.26,0,0,0-1.19-2.34,7,7,0,0,0-2.11-1.07v-.66h9.7a1.36,1.36,0,0,1,1,.29,6.13,6.13,0,0,1,.81,1.78l16.5,45.42,17.53-47.49h10.36v.66a5.84,5.84,0,0,0-2.11,1A4.29,4.29,0,0,0,365,33.79a26.32,26.32,0,0,0-.48,5q-.08,3.28-.07,9V67.12q0,5.77.07,9.06a26.23,26.23,0,0,0,.48,5,4,4,0,0,0,1.18,2.33,6,6,0,0,0,2.11,1v.74H354.44V84.5a6.09,6.09,0,0,0,2.11-1,4,4,0,0,0,1.18-2.33,26.23,26.23,0,0,0,.48-5q.07-3.29.07-9.06V31.75L338.46,85.47h-1.11L317.3,31.53V66.6c0,3.85,0,6.87.11,9.06a25.88,25.88,0,0,0,.55,5.07,4.72,4.72,0,0,0,1.33,2.52,7.48,7.48,0,0,0,2.52,1.25v.74h-9.4Z"/><path d="M397.9,84.5a5.92,5.92,0,0,0,2.11-1,4.26,4.26,0,0,0,1.18-2.34,25.49,25.49,0,0,0,.48-5q.07-3.29.07-9.06V47.81q0-5.7-.07-9a25.58,25.58,0,0,0-.48-5A4.26,4.26,0,0,0,400,31.49a7.15,7.15,0,0,0-2.11-1.07v-.66h34.33a1.54,1.54,0,0,1,1,.26c.23.17.41.7.56,1.59l1.26,7h-1a16,16,0,0,0-1.88-4,8.57,8.57,0,0,0-2.48-2.44A9,9,0,0,0,426.53,31a22.43,22.43,0,0,0-4.07-.34H407.88V54h5.85a11,11,0,0,0,3.81-.52,5.29,5.29,0,0,0,2.07-1.29,3.87,3.87,0,0,0,.93-1.78c.14-.66.29-1.34.44-2h.81V60.46H421c-.15-.64-.3-1.31-.44-2a3.88,3.88,0,0,0-.93-1.81,5.3,5.3,0,0,0-2.07-1.3,11.28,11.28,0,0,0-3.81-.51h-5.85V84.36h16a31.86,31.86,0,0,0,4.29-.26,7.47,7.47,0,0,0,5.69-3.85,19.21,19.21,0,0,0,1.85-4.77h1l-1,8a2.38,2.38,0,0,1-.52,1.52,2.15,2.15,0,0,1-1.19.25H397.9Z"/><path d="M458,85.84a21.72,21.72,0,0,1-5.73-.63,22.47,22.47,0,0,1-3.85-1.41c-1.06-.52-2-1-2.81-1.4a5.53,5.53,0,0,0-2.55-.63c-.89,0-1.48.51-1.78,1.55h-.89V70.6h.89a17,17,0,0,0,5.33,10.54Q450.87,85,458,85a15.66,15.66,0,0,0,5.62-.89,9.89,9.89,0,0,0,3.74-2.44A9.18,9.18,0,0,0,469.4,78a15.18,15.18,0,0,0,.63-4.44,15.43,15.43,0,0,0-.7-5,10.1,10.1,0,0,0-2.3-3.74,17.49,17.49,0,0,0-4.21-3.11c-1.75-1-3.91-2-6.48-3.14a65.24,65.24,0,0,1-6.4-3.26,21.69,21.69,0,0,1-4.62-3.51,13.51,13.51,0,0,1-2.81-4.14,13,13,0,0,1-1-5.14,12.1,12.1,0,0,1,4.66-9.92,15.42,15.42,0,0,1,4.92-2.59,19.24,19.24,0,0,1,5.88-.89,22.53,22.53,0,0,1,4.92.45,27.07,27.07,0,0,1,3.36,1c.94.35,1.77.67,2.48,1A5.65,5.65,0,0,0,470,32a1.91,1.91,0,0,0,2-1.56h.82v9.84H472a12.83,12.83,0,0,0-5.36-7.73A17.48,17.48,0,0,0,457,30.05q-5.17,0-8.06,2.22t-2.89,6.66a12.34,12.34,0,0,0,.63,4.14,9.22,9.22,0,0,0,2,3.26,17.16,17.16,0,0,0,3.63,2.81,47,47,0,0,0,5.47,2.74c2.52,1.08,4.84,2.17,7,3.25a29.58,29.58,0,0,1,5.55,3.63,14.68,14.68,0,0,1,3.7,4.66,14,14,0,0,1,1.33,6.29,15.3,15.3,0,0,1-5,11.46,18,18,0,0,1-5.55,3.41A18.32,18.32,0,0,1,458,85.84Z"/><path d="M492.74,84.5a5.84,5.84,0,0,0,2.11-1A4.26,4.26,0,0,0,496,81.17a25.49,25.49,0,0,0,.48-5c0-2.19.07-5.21.07-9.06V30.64h-5.25a28.77,28.77,0,0,0-4.66.34,8.87,8.87,0,0,0-3.52,1.33,7.82,7.82,0,0,0-2.55,2.92,19.11,19.11,0,0,0-1.7,5h-1L479,31.61a3.34,3.34,0,0,1,.41-1.59,1.52,1.52,0,0,1,1.07-.26h38.33a1.54,1.54,0,0,1,1.07.26,3.25,3.25,0,0,1,.4,1.59l1.11,8.65h-1a19.11,19.11,0,0,0-1.7-5,7.91,7.91,0,0,0-2.55-2.92A9,9,0,0,0,512.53,31a30,30,0,0,0-4.77-.34h-5V67.12c0,3.85,0,6.87.07,9.06a24.58,24.58,0,0,0,.49,5,4.19,4.19,0,0,0,1.18,2.34,5.84,5.84,0,0,0,2.11,1v.74H492.74Z"/><path d="M522.56,84.58A6.33,6.33,0,0,0,524,83.8a5.89,5.89,0,0,0,1.33-1.44,18.61,18.61,0,0,0,1.41-2.55q.74-1.59,1.62-4.11l15-41.06c-.35-.79-.67-1.44-1-2a5,5,0,0,0-.93-1.22,3.44,3.44,0,0,0-1-.67,6.57,6.57,0,0,0-1.18-.37v-.66h7.84c.45,0,.73.07.85.22a6,6,0,0,1,.56,1l16.94,44.84c.44,1.28.85,2.38,1.22,3.29a25.17,25.17,0,0,0,1.11,2.4,6.57,6.57,0,0,0,1.29,1.74,6.83,6.83,0,0,0,1.85,1.22v.74H559.48V84.5q1.85-.36,1.92-1.62a9.74,9.74,0,0,0-.81-3.63l-4.22-11H532.1l-2.66,7.4c-.35.94-.64,1.86-.89,2.77a8.54,8.54,0,0,0-.33,2.56,3.85,3.85,0,0,0,.66,2.11A4.17,4.17,0,0,0,531,84.58v.66h-8.43ZM556,67.41,543.87,36l-11.4,31.44Z"/><path d="M581.08,84.5a5.84,5.84,0,0,0,2.11-1,4.19,4.19,0,0,0,1.18-2.34,25.49,25.49,0,0,0,.48-5q.07-3.29.08-9.06V30.64h-5.26A28.86,28.86,0,0,0,575,31a8.88,8.88,0,0,0-3.51,1.33A7.82,7.82,0,0,0,569,35.23a19.46,19.46,0,0,0-1.71,5h-1l1.11-8.65a3.22,3.22,0,0,1,.41-1.59,1.52,1.52,0,0,1,1.07-.26h38.32a1.52,1.52,0,0,1,1.07.26,3.22,3.22,0,0,1,.41,1.59l1.11,8.65h-1a19.46,19.46,0,0,0-1.71-5,7.82,7.82,0,0,0-2.55-2.92A8.9,8.9,0,0,0,600.87,31a30.13,30.13,0,0,0-4.77-.34h-5V67.12q0,5.77.07,9.06a25.49,25.49,0,0,0,.48,5,4.2,4.2,0,0,0,1.19,2.34,5.78,5.78,0,0,0,2.1,1v.74H581.08Z"/><path d="M614.52,84.5a5.84,5.84,0,0,0,2.11-1,4.19,4.19,0,0,0,1.18-2.34,25.49,25.49,0,0,0,.48-5q.08-3.29.08-9.06V47.81q0-5.7-.08-9a25.58,25.58,0,0,0-.48-5,4.19,4.19,0,0,0-1.18-2.34,7,7,0,0,0-2.11-1.07v-.66h34.33a1.57,1.57,0,0,1,1,.26,2.93,2.93,0,0,1,.55,1.59l1.26,7h-1a16,16,0,0,0-1.89-4,8.45,8.45,0,0,0-2.48-2.44A9,9,0,0,0,643.15,31a22.35,22.35,0,0,0-4.07-.34H624.51V54h5.84a11,11,0,0,0,3.81-.52,5.29,5.29,0,0,0,2.07-1.29,3.87,3.87,0,0,0,.93-1.78c.15-.66.3-1.34.44-2h.82V60.46h-.82l-.44-2a3.88,3.88,0,0,0-.93-1.81,5.3,5.3,0,0,0-2.07-1.3,11.28,11.28,0,0,0-3.81-.51h-5.84V84.36h16a31.65,31.65,0,0,0,4.29-.26A7.82,7.82,0,0,0,648,82.91a8,8,0,0,0,2.45-2.66,19.61,19.61,0,0,0,1.85-4.77h1l-1,8c-.1.84-.27,1.34-.52,1.52a2.14,2.14,0,0,1-1.18.25H614.52Z"/><path d="M57,112.81A55.31,55.31,0,1,1,112.26,57.5,55.37,55.37,0,0,1,57,112.81ZM57,2.91a54.59,54.59,0,0,0,0,109.18h0A54.59,54.59,0,0,0,57,2.91Z"/><path d="M51.2,63.06a17.1,17.1,0,0,1-4.5-.49,17.7,17.7,0,0,1-3-1.11c-.83-.4-1.57-.77-2.21-1.1a4.3,4.3,0,0,0-2-.5c-.7,0-1.16.41-1.4,1.22h-.69v-10h.69a13.41,13.41,0,0,0,4.19,8.28,13,13,0,0,0,9,3,12.43,12.43,0,0,0,4.42-.69,7.79,7.79,0,0,0,2.93-1.92,7.25,7.25,0,0,0,1.63-2.85,13.36,13.36,0,0,0-.06-7.38,7.9,7.9,0,0,0-1.8-2.94A13.8,13.8,0,0,0,55,44.14c-1.38-.75-3.07-1.58-5.09-2.47a50.83,50.83,0,0,1-5-2.56,17.28,17.28,0,0,1-3.63-2.76,10.48,10.48,0,0,1-2.21-3.25,10.28,10.28,0,0,1-.75-4,9.82,9.82,0,0,1,1-4.51A9.71,9.71,0,0,1,42,21.27a12.19,12.19,0,0,1,3.86-2,15.28,15.28,0,0,1,4.62-.69,17.5,17.5,0,0,1,3.87.35,20.75,20.75,0,0,1,2.64.75c.74.27,1.39.52,1.95.76a4.48,4.48,0,0,0,1.72.35,1.52,1.52,0,0,0,1.57-1.23h.63v7.74h-.63A10.1,10.1,0,0,0,58,21.18a13.69,13.69,0,0,0-7.53-1.95A10.18,10.18,0,0,0,44.11,21a6.18,6.18,0,0,0-2.27,5.23,9.69,9.69,0,0,0,.5,3.25A7.07,7.07,0,0,0,43.93,32a13.54,13.54,0,0,0,2.85,2.21,35.72,35.72,0,0,0,4.3,2.15c2,.85,3.8,1.71,5.47,2.56a22.82,22.82,0,0,1,4.36,2.85,11.22,11.22,0,0,1,2.9,3.66,10.87,10.87,0,0,1,1,4.94,12,12,0,0,1-1,5,11.83,11.83,0,0,1-2.9,4,14.48,14.48,0,0,1-9.71,3.66Z"/><path d="M46,95.88a4.45,4.45,0,0,0,1.65-.78,3.26,3.26,0,0,0,.93-1.83A19.55,19.55,0,0,0,49,89.34q.06-2.58.06-7.12V67.05c0-3,0-5.34-.06-7.06a19.52,19.52,0,0,0-.38-3.92,3.26,3.26,0,0,0-.93-1.83A5.4,5.4,0,0,0,46,53.39v-.52H73a1.28,1.28,0,0,1,.78.2,2.3,2.3,0,0,1,.44,1.25l1,5.52h-.76A12.7,12.7,0,0,0,73,56.71,6.59,6.59,0,0,0,71,54.79a6.93,6.93,0,0,0-2.5-1,17,17,0,0,0-3.2-.26H53.86V71.88h4.6a8.8,8.8,0,0,0,3-.41,4.08,4.08,0,0,0,1.63-1,3,3,0,0,0,.72-1.39c.12-.53.24-1.06.35-1.6h.64V77h-.64c-.11-.5-.23-1-.35-1.57A3.05,3.05,0,0,0,63.08,74a4.08,4.08,0,0,0-1.63-1,8.8,8.8,0,0,0-3-.41h-4.6v23.2H66.42a23.82,23.82,0,0,0,3.37-.21,6,6,0,0,0,2.56-.93,6.4,6.4,0,0,0,1.92-2.09,15.37,15.37,0,0,0,1.45-3.75h.81l-.75,6.28c-.08.66-.22,1.05-.41,1.19a1.6,1.6,0,0,1-.93.2H46Z"/></svg>