<svg id="Layer_1" data-name="Layer 1" xmlns="http://www.w3.org/2000/svg" viewBox="0 0 556.27 388.18"><defs><style>.cls-1{fill:#f4f0ed;}</style></defs><path class="cls-1" d="M278.14,262.06a115.5,115.5,0,1,1,115.5-115.5A115.63,115.63,0,0,1,278.14,262.06Zm0-229.5a114,114,0,0,0,0,228h0a114,114,0,0,0,0-228Z"/><path class="cls-1" d="M52.23,357.12a19.58,19.58,0,0,1-9.1-1.93c-1-.49-1.9-.94-2.67-1.34a5.34,5.34,0,0,0-2.43-.59,1.7,1.7,0,0,0-1.68,1.47H35.5V342.65h.85a16.15,16.15,0,0,0,5,10q4.08,3.61,10.83,3.62a14.73,14.73,0,0,0,5.34-.85,9.31,9.31,0,0,0,3.54-2.31,8.74,8.74,0,0,0,2-3.45,14.33,14.33,0,0,0,.6-4.21,14.57,14.57,0,0,0-.67-4.71,9.55,9.55,0,0,0-2.18-3.55,16.54,16.54,0,0,0-4-2.95q-2.51-1.37-6.15-3a63.24,63.24,0,0,1-6.08-3.09,20.89,20.89,0,0,1-4.39-3.34,12.69,12.69,0,0,1-2.67-3.93,12.34,12.34,0,0,1-.91-4.88,11.53,11.53,0,0,1,4.42-9.42,14.53,14.53,0,0,1,4.68-2.46,18.2,18.2,0,0,1,5.58-.84,21.72,21.72,0,0,1,4.67.42,27.37,27.37,0,0,1,3.2.91c.89.33,1.68.64,2.36.92a5.36,5.36,0,0,0,2.07.42,1.83,1.83,0,0,0,1.9-1.48h.77v9.35h-.77a12.22,12.22,0,0,0-5.1-7.34,16.58,16.58,0,0,0-9.1-2.36q-4.92,0-7.66,2.11a7.5,7.5,0,0,0-2.74,6.32,11.78,11.78,0,0,0,.6,3.94,8.75,8.75,0,0,0,1.93,3.09,16,16,0,0,0,3.45,2.67,44.53,44.53,0,0,0,5.19,2.6c2.39,1,4.6,2.06,6.61,3.09A28.06,28.06,0,0,1,64,331.4a13.83,13.83,0,0,1,3.51,4.43,13.13,13.13,0,0,1,1.27,6A14.57,14.57,0,0,1,64,352.69a17.28,17.28,0,0,1-5.27,3.24A17.53,17.53,0,0,1,52.23,357.12Z"/><path class="cls-1" d="M84.9,355.86a5.56,5.56,0,0,0,2-.95A4,4,0,0,0,88,352.69a24,24,0,0,0,.46-4.74q.08-3.12.07-8.61V304.7h-5a27.22,27.22,0,0,0-4.42.32,8.54,8.54,0,0,0-3.34,1.26,7.58,7.58,0,0,0-2.43,2.78,18.46,18.46,0,0,0-1.61,4.78h-1l1.06-8.22a3,3,0,0,1,.39-1.51,1.43,1.43,0,0,1,1-.25h36.4a1.46,1.46,0,0,1,1,.25,3.22,3.22,0,0,1,.39,1.51l1,8.22h-1a18.44,18.44,0,0,0-1.62-4.78,7.56,7.56,0,0,0-2.42-2.78,8.67,8.67,0,0,0-3.38-1.26,28.49,28.49,0,0,0-4.53-.32H94.38v34.64c0,3.66,0,6.53.07,8.61a24,24,0,0,0,.46,4.74A4,4,0,0,0,96,354.91a5.62,5.62,0,0,0,2,.95v.7H84.9Z"/><path class="cls-1" d="M113.49,355.86a5.88,5.88,0,0,0,2-.92,3.82,3.82,0,0,0,1.12-2.21,24.78,24.78,0,0,0,.46-4.78c0-2.08.07-4.95.07-8.61V321c0-3.61,0-6.46-.07-8.54a24.78,24.78,0,0,0-.46-4.78,4.07,4.07,0,0,0-1.12-2.25,5.53,5.53,0,0,0-2-.95v-.63h13.14v.63a5.56,5.56,0,0,0-2,.95,4,4,0,0,0-1.12,2.25,24.78,24.78,0,0,0-.46,4.78Q123,315.59,123,321v6.25h26.63V321q0-5.42-.07-8.54a24.78,24.78,0,0,0-.46-4.78,4,4,0,0,0-1.12-2.25,5.56,5.56,0,0,0-2-.95v-.63H159.1v.63a5.53,5.53,0,0,0-2,.95,4.07,4.07,0,0,0-1.12,2.25,24.78,24.78,0,0,0-.46,4.78q-.07,3.12-.07,8.54v18.33q0,5.49.07,8.61a24.78,24.78,0,0,0,.46,4.78,3.82,3.82,0,0,0,1.12,2.21,5.88,5.88,0,0,0,2,.92v.7H146v-.7a5.91,5.91,0,0,0,2-.92,3.77,3.77,0,0,0,1.12-2.21,24.78,24.78,0,0,0,.46-4.78q.08-3.12.07-8.61V328.1H123v11.24q0,5.49.07,8.61a24.78,24.78,0,0,0,.46,4.78,3.77,3.77,0,0,0,1.12,2.21,5.91,5.91,0,0,0,2,.92v.7H113.49Z"/><path class="cls-1" d="M161.06,355.86a6,6,0,0,0,2-.92,3.82,3.82,0,0,0,1.12-2.21,24.78,24.78,0,0,0,.46-4.78c0-2.08.07-4.95.07-8.61V321c0-3.61,0-6.46-.07-8.54a24.78,24.78,0,0,0-.46-4.78,4.07,4.07,0,0,0-1.12-2.25,5.62,5.62,0,0,0-2-.95v-.63h13.35v.63a6.07,6.07,0,0,0-2.18.95,3.77,3.77,0,0,0-1.12,2.25,29.61,29.61,0,0,0-.46,4.78q-.1,3.12-.1,8.54v34.71h13.07a30.29,30.29,0,0,0,4.07-.25,7.23,7.23,0,0,0,3.16-1.2,8.09,8.09,0,0,0,2.46-2.77,22.65,22.65,0,0,0,2-5h.91l-1.26,8.36c-.09.8-.26,1.28-.49,1.44a2,2,0,0,1-1.13.25H161.06Z"/><path class="cls-1" d="M197,355.86a6.07,6.07,0,0,0,2-1.2,4.67,4.67,0,0,0,1.12-2.39,25.42,25.42,0,0,0,.46-4.81q.07-3.12.07-8.61V321q0-5.42-.07-8.54a24,24,0,0,0-.46-4.74,4,4,0,0,0-1.12-2.22,6.32,6.32,0,0,0-2-1v-.63h9.2a1.27,1.27,0,0,1,.91.28,5.66,5.66,0,0,1,.78,1.69L223.53,349l16.65-45.11H250v.63a5.62,5.62,0,0,0-2,.95,4.07,4.07,0,0,0-1.12,2.25,24.78,24.78,0,0,0-.46,4.78q-.08,3.12-.07,8.54v18.33q0,5.49.07,8.61a24.78,24.78,0,0,0,.46,4.78,3.82,3.82,0,0,0,1.12,2.21,6,6,0,0,0,2,.92v.7H236.88v-.7a5.91,5.91,0,0,0,2-.92,3.82,3.82,0,0,0,1.12-2.21,24.78,24.78,0,0,0,.46-4.78q.07-3.12.07-8.61V305.76l-18.83,51h-1L201.6,305.55v33.3q0,5.49.11,8.61a24.41,24.41,0,0,0,.53,4.81,4.42,4.42,0,0,0,1.26,2.39,7.09,7.09,0,0,0,2.39,1.2v.7H197Z"/><path class="cls-1" d="M278.15,355.86a5.56,5.56,0,0,0,2-.95,4,4,0,0,0,1.13-2.22,24.19,24.19,0,0,0,.45-4.74q.07-3.12.07-8.61V321q0-5.42-.07-8.54a24.19,24.19,0,0,0-.45-4.74,4,4,0,0,0-1.13-2.22,6.32,6.32,0,0,0-2-1v-.63h32.6a1.5,1.5,0,0,1,.95.25,2.71,2.71,0,0,1,.53,1.51l1.19,6.67h-.91a15.24,15.24,0,0,0-1.79-3.79,8.12,8.12,0,0,0-2.36-2.32,8.52,8.52,0,0,0-3-1.16,21.11,21.11,0,0,0-3.86-.32H287.63v22.14h5.56a10.73,10.73,0,0,0,3.61-.49,5,5,0,0,0,2-1.23,3.67,3.67,0,0,0,.88-1.69c.14-.63.28-1.28.42-1.93h.78V333h-.78c-.14-.61-.28-1.24-.42-1.9a3.63,3.63,0,0,0-.88-1.72,5,5,0,0,0-2-1.23,10.48,10.48,0,0,0-3.61-.49h-5.56v28h15.18a30.34,30.34,0,0,0,4.08-.25,7.43,7.43,0,0,0,3.09-1.12,7.72,7.72,0,0,0,2.32-2.53,18.4,18.4,0,0,0,1.75-4.54h1l-.92,7.59c-.09.8-.25,1.28-.49,1.44a1.93,1.93,0,0,1-1.12.25H278.15Z"/><path class="cls-1" d="M335.2,357.12a20.6,20.6,0,0,1-5.44-.6,21.23,21.23,0,0,1-3.66-1.33c-1-.49-1.89-.94-2.67-1.34a5.3,5.3,0,0,0-2.42-.59c-.84,0-1.4.49-1.69,1.47h-.84V342.65h.84a16.21,16.21,0,0,0,5.06,10q4.08,3.61,10.82,3.62a14.66,14.66,0,0,0,5.34-.85,9.28,9.28,0,0,0,3.55-2.31,8.86,8.86,0,0,0,2-3.45,14.33,14.33,0,0,0,.6-4.21,14.85,14.85,0,0,0-.67-4.71,9.55,9.55,0,0,0-2.18-3.55,16.54,16.54,0,0,0-4-2.95q-2.51-1.37-6.15-3a63.24,63.24,0,0,1-6.08-3.09,20.63,20.63,0,0,1-4.39-3.34,12.69,12.69,0,0,1-2.67-3.93,12.34,12.34,0,0,1-.91-4.88A11.53,11.53,0,0,1,324,306.6a14.59,14.59,0,0,1,4.67-2.46,18.31,18.31,0,0,1,5.59-.84,21.72,21.72,0,0,1,4.67.42,27.37,27.37,0,0,1,3.2.91c.89.33,1.67.64,2.35.92a5.4,5.4,0,0,0,2.08.42,1.81,1.81,0,0,0,1.89-1.48h.78v9.35h-.78a12.16,12.16,0,0,0-5.09-7.34,16.58,16.58,0,0,0-9.1-2.36q-4.92,0-7.66,2.11a7.47,7.47,0,0,0-2.74,6.32,11.78,11.78,0,0,0,.6,3.94,8.75,8.75,0,0,0,1.93,3.09,16.15,16.15,0,0,0,3.44,2.67,45.57,45.57,0,0,0,5.2,2.6q3.58,1.54,6.61,3.09a28.06,28.06,0,0,1,5.27,3.44,13.83,13.83,0,0,1,3.51,4.43,13.27,13.27,0,0,1,1.27,6,14.64,14.64,0,0,1-1.27,6.05,14.35,14.35,0,0,1-3.51,4.84,17.28,17.28,0,0,1-5.27,3.24A17.58,17.58,0,0,1,335.2,357.12Z"/><path class="cls-1" d="M368.23,355.86a5.56,5.56,0,0,0,2-.95,4,4,0,0,0,1.12-2.22,24,24,0,0,0,.46-4.74q.07-3.12.07-8.61V304.7h-5a27.44,27.44,0,0,0-4.43.32,8.56,8.56,0,0,0-3.33,1.26,7.58,7.58,0,0,0-2.43,2.78,18.46,18.46,0,0,0-1.61,4.78h-1l1.06-8.22a3.14,3.14,0,0,1,.38-1.51,1.48,1.48,0,0,1,1-.25H393a1.48,1.48,0,0,1,1,.25,3.14,3.14,0,0,1,.38,1.51l1.06,8.22h-1a18.46,18.46,0,0,0-1.61-4.78,7.65,7.65,0,0,0-2.42-2.78A8.67,8.67,0,0,0,387,305a28.49,28.49,0,0,0-4.53-.32h-4.78v34.64c0,3.66,0,6.53.07,8.61a24,24,0,0,0,.46,4.74,4,4,0,0,0,1.12,2.22,5.53,5.53,0,0,0,2,.95v.7H368.23Z"/><path class="cls-1" d="M396.54,355.93a5.9,5.9,0,0,0,1.41-.74,5.68,5.68,0,0,0,1.26-1.37,17,17,0,0,0,1.34-2.43c.47-1,1-2.3,1.54-3.9l14.2-39a20.21,20.21,0,0,0-.92-1.86,4.51,4.51,0,0,0-.88-1.16,3.41,3.41,0,0,0-.94-.64,7.19,7.19,0,0,0-1.13-.35v-.63h7.45a1.09,1.09,0,0,1,.81.21,6.05,6.05,0,0,1,.53,1l16.08,42.57c.43,1.22.81,2.27,1.16,3.13s.71,1.63,1.06,2.29a6.58,6.58,0,0,0,1.23,1.65,6.74,6.74,0,0,0,1.75,1.16v.7H431.6v-.7c1.17-.24,1.78-.75,1.83-1.55a9.17,9.17,0,0,0-.77-3.44l-4-10.4h-23l-2.53,7c-.33.9-.61,1.77-.85,2.64a8.21,8.21,0,0,0-.31,2.42,3.68,3.68,0,0,0,.63,2,3.94,3.94,0,0,0,2,1.37v.63h-8Zm31.76-16.31-11.52-29.86L406,339.62Z"/><path class="cls-1" d="M452.12,355.86a5.56,5.56,0,0,0,2-.95,4,4,0,0,0,1.13-2.22,24.19,24.19,0,0,0,.45-4.74q.07-3.12.07-8.61V304.7h-5a27.26,27.26,0,0,0-4.43.32,8.54,8.54,0,0,0-3.34,1.26,7.47,7.47,0,0,0-2.42,2.78,18.07,18.07,0,0,0-1.62,4.78h-1l1.05-8.22a3.1,3.1,0,0,1,.39-1.51,1.45,1.45,0,0,1,1-.25h36.39a1.45,1.45,0,0,1,1,.25,3.1,3.1,0,0,1,.39,1.51l1.05,8.22h-1a18.07,18.07,0,0,0-1.62-4.78,7.47,7.47,0,0,0-2.42-2.78,8.62,8.62,0,0,0-3.37-1.26,28.53,28.53,0,0,0-4.54-.32h-4.77v34.64q0,5.49.07,8.61a23.43,23.43,0,0,0,.45,4.74,4,4,0,0,0,1.13,2.22,5.56,5.56,0,0,0,2,.95v.7H452.12Z"/><path class="cls-1" d="M483.88,355.86a5.56,5.56,0,0,0,2-.95,4,4,0,0,0,1.13-2.22,24.19,24.19,0,0,0,.45-4.74q.07-3.12.07-8.61V321q0-5.42-.07-8.54a24.19,24.19,0,0,0-.45-4.74,4,4,0,0,0-1.13-2.22,6.32,6.32,0,0,0-2-1v-.63h32.6a1.5,1.5,0,0,1,.95.25,2.71,2.71,0,0,1,.53,1.51l1.19,6.67h-.91a15.24,15.24,0,0,0-1.79-3.79,8.12,8.12,0,0,0-2.36-2.32,8.6,8.6,0,0,0-3-1.16,21.11,21.11,0,0,0-3.86-.32H493.36v22.14h5.55a10.75,10.75,0,0,0,3.62-.49,5,5,0,0,0,2-1.23,3.67,3.67,0,0,0,.88-1.69c.14-.63.28-1.28.42-1.93h.77V333h-.77c-.14-.61-.28-1.24-.42-1.9a3.63,3.63,0,0,0-.88-1.72,5,5,0,0,0-2-1.23,10.5,10.5,0,0,0-3.62-.49h-5.55v28h15.18a30.34,30.34,0,0,0,4.08-.25,7.43,7.43,0,0,0,3.09-1.12,7.72,7.72,0,0,0,2.32-2.53,18.4,18.4,0,0,0,1.75-4.54h1l-.92,7.59c-.09.8-.25,1.28-.49,1.44a1.93,1.93,0,0,1-1.12.25H483.88Z"/><path class="cls-1" d="M266.13,158.17a36.14,36.14,0,0,1-9.41-1,37.4,37.4,0,0,1-6.31-2.31q-2.61-1.28-4.61-2.31a9.14,9.14,0,0,0-4.19-1q-2.19,0-2.91,2.55h-1.46V133.16h1.46q1.7,11.06,8.74,17.3t18.69,6.25a25.44,25.44,0,0,0,9.22-1.46,16.06,16.06,0,0,0,6.13-4,15,15,0,0,0,3.4-5.95,24.83,24.83,0,0,0,1-7.28,25.33,25.33,0,0,0-1.15-8.13,16.43,16.43,0,0,0-3.76-6.13,28.56,28.56,0,0,0-6.92-5.1c-2.87-1.58-6.42-3.3-10.62-5.16a108.32,108.32,0,0,1-10.5-5.34,36.37,36.37,0,0,1-7.59-5.76,22.08,22.08,0,0,1-4.61-6.8,21.38,21.38,0,0,1-1.58-8.44,20,20,0,0,1,7.65-16.26,25.31,25.31,0,0,1,8.07-4.25,31.53,31.53,0,0,1,9.65-1.46,37.67,37.67,0,0,1,8.07.73,46,46,0,0,1,5.52,1.58c1.54.57,2.9,1.09,4.07,1.58a9.39,9.39,0,0,0,3.58.73,3.15,3.15,0,0,0,3.28-2.55h1.33V83.4h-1.33q-2.43-8.61-8.8-12.68t-15.72-4.07q-8.49,0-13.23,3.64t-4.73,10.93a20.24,20.24,0,0,0,1,6.79A14.93,14.93,0,0,0,251,93.35,28.09,28.09,0,0,0,256.9,98a78.08,78.08,0,0,0,9,4.49q6.18,2.67,11.41,5.34a48.33,48.33,0,0,1,9.1,5.94,24.1,24.1,0,0,1,6.07,7.65,22.89,22.89,0,0,1,2.18,10.32,25.1,25.1,0,0,1-8.25,18.81,29.55,29.55,0,0,1-9.1,5.58A30,30,0,0,1,266.13,158.17Z"/><path class="cls-1" d="M255.31,226.71a9.7,9.7,0,0,0,3.46-1.64,6.92,6.92,0,0,0,1.94-3.83,42.83,42.83,0,0,0,.79-8.19q.12-5.4.12-14.87V166.5q0-9.34-.12-14.74a43,43,0,0,0-.79-8.2,6.92,6.92,0,0,0-1.94-3.82,11.27,11.27,0,0,0-3.46-1.76v-1.09h56.32a2.65,2.65,0,0,1,1.63.42,4.75,4.75,0,0,1,.91,2.61l2.07,11.53h-1.58a25.82,25.82,0,0,0-3.1-6.55,14.18,14.18,0,0,0-4.06-4,14.74,14.74,0,0,0-5.22-2,36.87,36.87,0,0,0-6.68-.55H271.69v38.24h9.59a18.44,18.44,0,0,0,6.25-.85,8.64,8.64,0,0,0,3.4-2.13,6.39,6.39,0,0,0,1.52-2.91l.73-3.34h1.33v19.91h-1.33c-.25-1-.49-2.14-.73-3.28a6.39,6.39,0,0,0-1.52-3,8.64,8.64,0,0,0-3.4-2.13,18.44,18.44,0,0,0-6.25-.85h-9.59v48.43h26.22a52,52,0,0,0,7-.42,12.81,12.81,0,0,0,5.34-1.94,13.22,13.22,0,0,0,4-4.37,31.66,31.66,0,0,0,3-7.83H319L317.45,225c-.16,1.37-.44,2.2-.85,2.48a3.4,3.4,0,0,1-1.94.43H255.31Z"/></svg>