<?xml version="1.0" encoding="utf-8"?>
<!-- Generator: Adobe Illustrator 25.3.0, SVG Export Plug-In . SVG Version: 6.00 Build 0)  -->
<svg version="1.1" id="Layer_1" xmlns="http://www.w3.org/2000/svg" xmlns:xlink="http://www.w3.org/1999/xlink" x="0px" y="0px"
	 viewBox="0 0 104 22" style="enable-background:new 0 0 104 22;" xml:space="preserve">
<style type="text/css">
	.st0{fill-rule:evenodd;clip-rule:evenodd;fill:#FFFFFF;}
	.st1{fill-rule:evenodd;clip-rule:evenodd;fill:#51A7D8;}
	.st2{fill-rule:evenodd;clip-rule:evenodd;fill:#C3DA4A;}
	.st3{fill-rule:evenodd;clip-rule:evenodd;fill:#ED2281;}
	.st4{fill-rule:evenodd;clip-rule:evenodd;fill:#F9C63C;}
</style>
<path class="st0" d="M24.5,6.3c-0.6-0.8-4.1-0.1-5.9,0.6C18.2,7,17.8,7.3,18.1,8c0.4,0.7,0.7,1.4,0.7,1.9c0,3-1,5.7-1.8,7.9
	c-0.6,1.5-1.1,3.1-0.7,3.5c0.4,0.4,0.9,0.1,5-0.1c0.4,0,0.6-0.1,0.7-0.7c0.8-5.1,2.5-10.6,4-10.6c0.4,0,0.7,0.6,0.7,0.7
	c0.9,2.6,5.4-1,4.5-3.6c-0.9-2.5-3.6-2.2-6.8,2.3C24.9,7.4,24.8,6.7,24.5,6.3z M80.8,12.5c0.3-6.9-6.9-8.8-12.9-4.8
	c-2.1,1.5-3.6,4.7-3.6,7.4c-0.3,1.6-1.8,2.6-4.2,3.5c-3.3,1.4-6.3-0.5-6.6-4.7c0-1.5,0.6-3.1,1.5-4.5c1.2-2,4.5-2.8,3.9-0.7
	c0,0.8-0.9,1.2-0.6,2.2c0,1.4,2.7,1.5,3.6,0.1C64.3,8,60.7,5.5,56,6c-4.8,0.4-8.7,4-8.7,8.9c0,3-5.7,5.3-8.7,3.5
	c-0.9-0.4-1.8-1.7-1.5-2.8c0-0.4,0.3-0.5,0.6-0.5c3-0.5,4.2-0.9,5.7-2.1c2.4-2,3-5.1,0.3-6.5c-1.2-0.6-5.7-1.3-9.6,1.3
	c0,0.1-3.9,2.6-3.9,7.2c0,3,1.5,5.1,3.9,6.1c1.5,0.6,3.3,0.9,5.4,0.6c2.7-0.2,5.7-1.9,7.2-3.1c0.9-0.6,1.2-0.4,1.5,0
	c5.1,6.1,12.3,2.2,15.3-0.1c0.9-0.6,1.2-0.1,1.5,0.3c1.2,1.8,3,2.9,6.6,3C76.3,21.8,80.5,17.8,80.8,12.5z M36.8,13.4
	c-1.2-1.3,2.4-6.6,4.5-6.1c1.2,0.2,1.5,1.2,0.9,2.5C41.6,11.6,37.7,14.2,36.8,13.4z M78.1,14c-1.2,5.7-8.1,7-8.7,1.5
	c-0.3-4.7,4.2-9.5,7.8-7C78.4,9.3,78.7,11.6,78.1,14z M99.1,12.4c-3,0-5.4,1.6-6,5.1c-0.9,5.2,6.9,6.3,10.5,1.5
	c0.6-0.5,0-1.2-0.6-0.7c-1.5,1.2-3,2.1-4.2,1.8c-1.2-0.2-2.1-2-1.2-2c3.6-0.5,4.5-2.4,4.8-2.9C102.7,13.4,101.5,12.4,99.1,12.4z
	 M100.3,14.5c-0.3,1.2-1.5,2.3-2.7,2.5c-0.9,0,0-2.5,1.2-3.1C99.7,13.3,100.3,13.7,100.3,14.5z M84.7,20.9c1.5,1.4,5.1,1.4,6.3,0.2
	c1.5-1,1.8-3,0.3-4.2c-1.8-1-2.4-1.9-2.4-2.4c0-1.4,2.1-1.1,1.5-0.1c-0.6,1.1,1.2,2.2,2.1,0.7c0.3-0.4,0.3-1,0-1.4
	c-0.9-1.6-3.6-1.5-5.4-0.9c-2.1,0.8-2.4,3.1-0.6,4.4c1.2,0.8,2.1,1.4,1.8,2.4c0,1.2-1.5,1-1.5-0.1c0-1.3-0.9-1.9-1.8-1.4
	C83.8,18.6,84.1,20.1,84.7,20.9z M81.1,18.5c-0.9,0-1.5,0.7-1.5,1.6c0,1,0.6,1.7,1.5,1.7s1.8-0.7,1.8-1.7
	C82.9,19.2,82,18.5,81.1,18.5z"/>
<path class="st0" d="M14.2,3.8C12.1,0.1,7.4-1.1,3.8,1C-3.7,5.3,0.7,16.5,10,17.7c0,0,1,0.1,1.4,0.1c0.4,0,0.5-0.3,0.1-0.4
	c-1.3-0.4-2-1.1-2.4-2.2C14.4,13.9,16.8,8.3,14.2,3.8"/>
<path class="st1" d="M14.1,7C13.8,3.8,11.2,1.3,8,1.1V7H14.1z"/>
<path class="st2" d="M8,14.2c3.4-0.2,6-3,6.1-6.4H8V14.2z"/>
<path class="st3" d="M1.1,7.8c0.1,3.4,2.7,6.2,6.1,6.4V7.8H1.1z"/>
<path class="st4" d="M7.2,1.1C4.1,1.3,1.5,3.8,1.2,7h6.1V1.1z"/>
</svg>
